<svg width="28" height="28" viewBox="0 0 28 28" fill="none" xmlns="http://www.w3.org/2000/svg">
<path d="M14.0002 2.33337C15.5473 2.33337 17.031 2.94796 18.125 4.04192C19.2189 5.13588 19.8335 6.61961 19.8335 8.16671C19.8335 9.7138 19.2189 11.1975 18.125 12.2915C17.031 13.3855 15.5473 14 14.0002 14C12.4531 14 10.9693 13.3855 9.87537 12.2915C8.78141 11.1975 8.16683 9.7138 8.16683 8.16671C8.16683 6.61961 8.78141 5.13588 9.87537 4.04192C10.9693 2.94796 12.4531 2.33337 14.0002 2.33337V2.33337ZM14.0002 16.9167C20.446 16.9167 25.6668 19.5271 25.6668 22.75V25.6667H2.3335V22.75C2.3335 19.5271 7.55433 16.9167 14.0002 16.9167Z" fill="white"/>
</svg>
