<svg width="28" height="28" viewBox="0 0 28 28" fill="none" xmlns="http://www.w3.org/2000/svg">
<path d="M3.32544 2.33337C3.06236 2.33337 2.81006 2.4358 2.62403 2.61813C2.438 2.80046 2.3335 3.04775 2.3335 3.3056C2.3335 3.56345 2.438 3.81073 2.62403 3.99306C2.81006 4.17539 3.06236 4.27782 3.32544 4.27782H3.81348C4.02888 4.27818 4.2383 4.34726 4.4101 4.47459C4.58189 4.60193 4.70674 4.78062 4.76575 4.98365L7.91221 15.7753C8.09017 16.3843 8.4656 16.92 8.98173 17.3013C9.49787 17.6827 10.1266 17.8889 10.773 17.8889H19.8374C20.4323 17.889 21.0135 17.7144 21.5061 17.3875C21.9987 17.0607 22.3801 16.5967 22.601 16.0553L25.5252 8.8881C25.6455 8.59317 25.6901 8.27388 25.6554 7.95813C25.6206 7.64237 25.5075 7.33977 25.3258 7.07677C25.1442 6.81376 24.8996 6.59837 24.6134 6.44941C24.3273 6.30045 24.0082 6.22246 23.6842 6.22226H7.19007L6.67228 4.44893C6.49477 3.83988 6.11979 3.30401 5.60403 2.92234C5.08826 2.54067 4.45975 2.33393 3.81348 2.33337H3.32544ZM11.261 25.6667C11.6518 25.6667 12.0388 25.5913 12.3998 25.4447C12.7609 25.2981 13.0889 25.0833 13.3653 24.8124C13.6416 24.5416 13.8608 24.2201 14.0104 23.8662C14.1599 23.5123 14.2369 23.1331 14.2369 22.75C14.2369 22.367 14.1599 21.9877 14.0104 21.6339C13.8608 21.28 13.6416 20.9585 13.3653 20.6876C13.0889 20.4168 12.7609 20.202 12.3998 20.0554C12.0388 19.9088 11.6518 19.8334 11.261 19.8334C10.4718 19.8334 9.71487 20.1407 9.15679 20.6876C8.59871 21.2346 8.28518 21.9765 8.28518 22.75C8.28518 23.5236 8.59871 24.2655 9.15679 24.8124C9.71487 25.3594 10.4718 25.6667 11.261 25.6667V25.6667ZM19.1966 25.6667C19.5874 25.6667 19.9744 25.5913 20.3354 25.4447C20.6965 25.2981 21.0245 25.0833 21.3009 24.8124C21.5772 24.5416 21.7964 24.2201 21.9459 23.8662C22.0955 23.5123 22.1725 23.1331 22.1725 22.75C22.1725 22.367 22.0955 21.9877 21.9459 21.6339C21.7964 21.28 21.5772 20.9585 21.3009 20.6876C21.0245 20.4168 20.6965 20.202 20.3354 20.0554C19.9744 19.9088 19.5874 19.8334 19.1966 19.8334C18.4074 19.8334 17.6505 20.1407 17.0924 20.6876C16.5343 21.2346 16.2208 21.9765 16.2208 22.75C16.2208 23.5236 16.5343 24.2655 17.0924 24.8124C17.6505 25.3594 18.4074 25.6667 19.1966 25.6667V25.6667Z" fill="white"/>
</svg>
