<svg width="24" height="24" viewBox="0 0 24 24" fill="none" xmlns="http://www.w3.org/2000/svg">
<path d="M21.0307 1.35561L12.0011 10.3861L2.97162 1.35561C2.75444 1.15686 2.46897 1.04957 2.17466 1.05609C1.88035 1.06261 1.59991 1.18244 1.39175 1.39062C1.1836 1.5988 1.06378 1.87928 1.05725 2.17361C1.05073 2.46795 1.15801 2.75346 1.35675 2.97066L10.3817 12.0011L1.35446 21.0293C1.24417 21.1345 1.15601 21.2606 1.09515 21.4002C1.0343 21.5399 1.00197 21.6904 1.00009 21.8427C0.998201 21.9951 1.02679 22.1463 1.08417 22.2874C1.14154 22.4286 1.22656 22.5568 1.33421 22.6646C1.44186 22.7724 1.56997 22.8576 1.71102 22.9152C1.85207 22.9728 2.0032 23.0016 2.15554 22.9999C2.30788 22.9983 2.45835 22.9662 2.5981 22.9055C2.73785 22.8448 2.86407 22.7568 2.96933 22.6467L12.0011 13.6185L21.0307 22.649C21.2478 22.8477 21.5333 22.955 21.8276 22.9485C22.1219 22.942 22.4024 22.8221 22.6105 22.614C22.8187 22.4058 22.9385 22.1253 22.945 21.831C22.9516 21.5366 22.8443 21.2511 22.6455 21.0339L13.616 12.0034L22.6455 2.97066C22.7558 2.86554 22.844 2.73944 22.9048 2.59976C22.9657 2.46008 22.998 2.30964 22.9999 2.15729C23.0018 2.00493 22.9732 1.85374 22.9158 1.7126C22.8585 1.57145 22.7734 1.4432 22.6658 1.33539C22.5581 1.22757 22.43 1.14237 22.289 1.08479C22.1479 1.0272 21.9968 0.998398 21.8445 1.00007C21.6921 1.00174 21.5417 1.03385 21.4019 1.09452C21.2621 1.15518 21.1359 1.24317 21.0307 1.35332V1.35561Z" fill="white"/>
</svg>
