<svg width="66" height="20" viewBox="0 0 66 20" fill="none" xmlns="http://www.w3.org/2000/svg">
<g clip-path="url(#clip0_5_990)">
<path d="M28.9042 8.03178C27.4875 8.03185 26.1289 8.60035 25.1272 9.61221C24.1255 10.6241 23.5628 11.9964 23.5627 13.4274V19.4977H38.5522L40.6783 15.4508H27.7549V13.8284C27.7549 13.3641 27.9375 12.9187 28.2626 12.5903C28.5876 12.262 29.0285 12.0775 29.4882 12.0774L37.9187 12.0767C39.4239 12.0767 40.8676 11.4727 41.9319 10.3976C42.9963 9.32246 43.5943 7.86426 43.5943 6.34379C43.5943 4.82332 42.9963 3.36512 41.9319 2.28998C40.8676 1.21485 39.4239 0.61084 37.9187 0.61084L27.8862 0.612669C27.36 0.612662 26.8391 0.71733 26.353 0.920697C25.8669 1.12406 25.4252 1.42215 25.0532 1.79793C24.6812 2.17371 24.3861 2.61982 24.1847 3.11081C23.9834 3.60179 23.8798 4.12802 23.8797 4.65946L37.6266 4.65908C38.0663 4.65543 38.4902 4.82468 38.8087 5.13106C39.1271 5.43743 39.3151 5.85689 39.3328 6.30074C39.3389 6.52562 39.3004 6.74946 39.2194 6.95905C39.1385 7.16863 39.0168 7.35972 38.8616 7.52104C38.7063 7.68235 38.5207 7.81063 38.3156 7.8983C38.1104 7.98596 37.89 8.03125 37.6673 8.03147L28.9042 8.03178Z" fill="#555E63"/>
<path d="M9.59409 15.4407C8.17983 15.4407 6.8235 14.8732 5.82346 13.8631C4.82343 12.853 4.26162 11.4829 4.26162 10.0544C4.26162 8.62584 4.82343 7.2558 5.82346 6.24567C6.8235 5.23553 8.17983 4.66805 9.59409 4.66805L20.4188 4.65959V0.612793L9.33933 0.620718C6.86238 0.620718 4.48689 1.61462 2.73543 3.38378C0.983962 5.15293 0 7.55242 0 10.0544C0 12.5563 0.983962 14.9558 2.73543 16.725C4.48689 18.4942 6.86238 19.4881 9.33933 19.4881L20.4188 19.4975V8.03152L8.39955 8.03183V12.0788L16.2267 12.0786V15.4508L9.59409 15.4407Z" fill="#F05F00"/>
<path d="M53.9836 17.2007H53.3386C53.0371 17.2007 52.748 17.3217 52.5348 17.537C52.3217 17.7523 52.2019 18.0444 52.2019 18.3489C52.2019 18.6534 52.3217 18.9455 52.5348 19.1608C52.748 19.3761 53.0371 19.4971 53.3386 19.4971H53.9836C54.285 19.4971 54.5742 19.3761 54.7874 19.1608C55.0005 18.9455 55.1203 18.6534 55.1203 18.3489C55.1203 18.0444 55.0005 17.7523 54.7874 17.537C54.5742 17.3217 54.285 17.2007 53.9836 17.2007V17.2007ZM53.9604 19.0171H53.3618C53.1864 19.0171 53.0181 18.9467 52.8941 18.8214C52.77 18.6961 52.7003 18.5262 52.7003 18.349C52.7003 18.1718 52.77 18.0018 52.8941 17.8765C53.0181 17.7512 53.1864 17.6808 53.3618 17.6808H53.9604C54.1358 17.6808 54.3041 17.7512 54.4281 17.8765C54.5522 18.0018 54.6218 18.1718 54.6218 18.349C54.6218 18.5262 54.5522 18.6961 54.4281 18.8214C54.3041 18.9467 54.1358 19.0171 53.9604 19.0171V19.0171Z" fill="#0084C1"/>
<path d="M49.4504 18.3488C49.4508 18.6533 49.5706 18.9451 49.7837 19.1604C49.9968 19.3756 50.2857 19.4967 50.5871 19.4971H51.8867V19.0171H50.6104C50.4349 19.0171 50.2667 18.9467 50.1426 18.8214C50.0186 18.6961 49.9489 18.5262 49.9489 18.349C49.9489 18.1718 50.0186 18.0018 50.1426 17.8765C50.2667 17.7512 50.4349 17.6808 50.6104 17.6808H51.8867V17.2007H50.5871C50.2858 17.201 49.9968 17.3221 49.7837 17.5374C49.5706 17.7526 49.4508 18.0444 49.4504 18.3488V18.3488Z" fill="#0084C1"/>
<path d="M57.6367 17.2007L57.1411 18.5762L56.6454 17.2007H56.0177L55.175 19.4967H55.7099L56.3316 17.7333L56.8853 19.2704H57.3968L57.9506 17.7333L58.5722 19.4967H59.1063L58.2644 17.2007H57.6367Z" fill="#0084C1"/>
<path d="M48.8642 19.4974C49.0357 19.4974 49.1747 19.357 49.1747 19.1838C49.1747 19.0105 49.0357 18.8701 48.8642 18.8701C48.6927 18.8701 48.5537 19.0105 48.5537 19.1838C48.5537 19.357 48.6927 19.4974 48.8642 19.4974Z" fill="#0084C1"/>
<path d="M57.3135 2.78825C57.0048 2.17507 56.5657 1.63837 56.0277 1.21655C55.3977 0.743525 54.6314 0.492557 53.8464 0.502222C53.0795 0.492569 52.3317 0.744216 51.7237 1.21655C51.1857 1.63837 50.7466 2.17507 50.4378 2.78825C46.9362 9.52618 41.6929 19.4974 41.6929 19.4974H46.4778L53.8464 5.23767L57.3094 11.9392H51.9777L53.8574 15.5648H59.1829L61.2151 19.4974H65.9999C65.9999 19.4974 60.8151 9.52618 57.3135 2.78825Z" fill="#0084C1"/>
</g>
<defs>
<clipPath id="clip0_5_990">
<rect width="66" height="20" fill="white"/>
</clipPath>
</defs>
</svg>
