<svg width="24" height="24" viewBox="0 0 24 24" fill="none" xmlns="http://www.w3.org/2000/svg">
<path fill-rule="evenodd" clip-rule="evenodd" d="M3 18.2955C3 18.0724 3.0886 17.8585 3.2463 17.7008C3.404 17.5431 3.61789 17.4545 3.84091 17.4545H20.6591C20.8821 17.4545 21.096 17.5431 21.2537 17.7008C21.4114 17.8585 21.5 18.0724 21.5 18.2955C21.5 18.5185 21.4114 18.7324 21.2537 18.8901C21.096 19.0478 20.8821 19.1364 20.6591 19.1364H3.84091C3.61789 19.1364 3.404 19.0478 3.2463 18.8901C3.0886 18.7324 3 18.5185 3 18.2955ZM3 11.5682C3 11.3452 3.0886 11.1313 3.2463 10.9736C3.404 10.8159 3.61789 10.7273 3.84091 10.7273H20.6591C20.8821 10.7273 21.096 10.8159 21.2537 10.9736C21.4114 11.1313 21.5 11.3452 21.5 11.5682C21.5 11.7912 21.4114 12.0051 21.2537 12.1628C21.096 12.3205 20.8821 12.4091 20.6591 12.4091H3.84091C3.61789 12.4091 3.404 12.3205 3.2463 12.1628C3.0886 12.0051 3 11.7912 3 11.5682ZM3 4.84091C3 4.61789 3.0886 4.404 3.2463 4.2463C3.404 4.0886 3.61789 4 3.84091 4H20.6591C20.8821 4 21.096 4.0886 21.2537 4.2463C21.4114 4.404 21.5 4.61789 21.5 4.84091C21.5 5.06393 21.4114 5.27782 21.2537 5.43552C21.096 5.59322 20.8821 5.68182 20.6591 5.68182H3.84091C3.61789 5.68182 3.404 5.59322 3.2463 5.43552C3.0886 5.27782 3 5.06393 3 4.84091Z" fill="white"/>
</svg>
