<svg width="28" height="28" viewBox="0 0 28 28" fill="none" xmlns="http://www.w3.org/2000/svg">
<path d="M23.4444 26H11.9444C11.2667 26 10.6167 25.719 10.1374 25.219C9.65813 24.7189 9.38889 24.0406 9.38889 23.3333V18H11.9444V23.3333H23.4444V4.66667H11.9444V10H9.38889V4.66667C9.38889 3.95942 9.65813 3.28115 10.1374 2.78105C10.6167 2.28095 11.2667 2 11.9444 2H23.4444C24.1222 2 24.7722 2.28095 25.2515 2.78105C25.7308 3.28115 26 3.95942 26 4.66667V23.3333C26 24.0406 25.7308 24.7189 25.2515 25.219C24.7722 25.719 24.1222 26 23.4444 26ZM14.5 19.3333V15.3333H3V12.6667H14.5V8.66667L20.8889 14L14.5 19.3333Z" fill="#9331D0"/>
</svg>
