<svg width="97" height="24" viewBox="0 0 97 24" fill="none" xmlns="http://www.w3.org/2000/svg">
<g clip-path="url(#clip0_7_998)">
<path d="M12.6929 24C5.09016 23.9965 0.00732422 18.5861 0.00732422 12.0199C0.00732422 5.45718 5.1005 -0.0207042 12.6825 5.88308e-05H84.3211C91.8997 -0.0207012 96.9928 5.45718 96.9928 12.0199C96.9928 18.5861 91.9117 23.9965 84.309 24H12.6929V24Z" fill="#ED1C24"/>
<path d="M12.7151 2.9502C6.69358 2.96058 3.00073 7.00584 3.00073 12.0045C3.00073 17.0048 6.67463 21.0777 12.7151 21.057H84.283C90.3287 21.0777 93.9992 17.0048 93.9992 12.0045C93.9992 7.00584 90.3046 2.96058 84.283 2.9502H12.7151V2.9502Z" fill="white"/>
<path d="M9.62702 6.3291H13.1339L17.9824 14.2085L17.9806 6.3291H21.4565V17.6292H17.9841L13.1114 9.74976V17.6292H9.62695V6.3291H9.62702Z" fill="#ED1C24"/>
<path d="M40.3598 7.4917H43.7461V9.01257H45.577V10.1303H43.7461L43.7495 17.6291H40.3598L40.3615 10.1303H38.5237V9.01603L40.3615 9.01258L40.3598 7.49171L40.3598 7.4917Z" fill="#ED1C24"/>
<path d="M23.3923 10.1147H26.7752V17.6308H23.3923V10.1147Z" fill="#ED1C24"/>
<path d="M23.3838 6.32568H26.7752V8.63726H23.3838V6.32568Z" fill="#ED1C24"/>
<path d="M82.6657 9.60449C79.9357 9.60449 77.7224 11.4904 77.7224 13.821C77.7224 16.1499 79.9357 18.0393 82.6657 18.0393C85.3975 18.0393 87.6073 16.1499 87.6073 13.821C87.6073 11.4904 85.3975 9.60449 82.6657 9.60449ZM84.0247 13.8107C84.0247 13.8107 84.0213 14.9457 84.0213 15.4025C84.0213 16.5998 83.3185 17.0929 82.6382 17.0929C81.9595 17.0929 81.2516 16.5998 81.2516 15.4025C81.2516 14.9457 81.2533 13.7813 81.2533 13.7813C81.2533 13.7813 81.2552 12.6722 81.2552 12.2171C81.2552 11.0233 81.9666 10.5336 82.6383 10.5336C83.3135 10.5336 84.0214 11.0233 84.0214 12.2171C84.0214 12.6722 84.0197 13.5148 84.0249 13.8141V13.8107L84.0247 13.8107Z" fill="#ED1C24"/>
<path d="M73.3061 13.8348V12.4904C73.3061 11.3277 72.5069 11.0336 71.9816 11.0336C71.4425 11.0336 70.6553 11.3277 70.6553 12.4904V13.8279V15.1654C70.6553 16.3298 71.4425 16.6291 71.9816 16.6291C72.5069 16.6291 73.3061 16.3298 73.3061 15.1654V13.8348V13.8348ZM73.2837 6.3291H76.6201V17.6275H73.2769C73.2769 17.6275 73.2752 17.2624 73.2752 17.1949C71.9817 18.0081 70.5211 18.0081 69.3808 17.4787C69.0759 17.3333 67.0693 16.3661 67.0693 13.75C67.0693 11.7672 68.9295 9.60096 71.3685 9.81723C72.1711 9.88817 72.7412 10.1823 73.2838 10.4903V6.3291H73.2837Z" fill="#ED1C24"/>
<path d="M34.6932 9.76871C35.9591 9.73237 38.5221 10.5629 38.5049 13.5371C38.5014 14.0683 38.5032 17.6274 38.5032 17.6274H35.1445V12.6928C35.1445 12.037 34.521 11.3103 33.5978 11.3103C32.6763 11.3103 31.9925 12.037 31.9925 12.6928C31.9925 13.0129 31.9959 17.6274 31.9959 17.6274H28.6389L28.6355 10.1148L31.9959 10.1113C31.9959 10.1113 31.9925 10.7152 31.9959 10.902C32.6435 10.2826 33.5771 9.79986 34.6932 9.76872" fill="#ED1C24"/>
<path d="M62.1795 9.76871C63.4438 9.73237 66.0102 10.5629 65.9929 13.5371C65.9895 14.0683 65.9929 17.6274 65.9929 17.6274H62.6308V12.6928C62.6308 12.037 62.0073 11.3103 61.0841 11.3103C60.1626 11.3103 59.4805 12.037 59.4805 12.6928C59.4805 13.0129 59.4839 17.6274 59.4839 17.6274H56.127V10.1148L59.4839 10.1113C59.4839 10.1113 59.4805 10.7152 59.4839 10.902C60.1298 10.2826 61.0617 9.79986 62.1795 9.76872" fill="#ED1C24"/>
<path d="M51.5383 14.9996C51.5383 14.9996 51.54 15.0342 51.54 15.4563C51.54 16.8301 50.6409 17.1364 50.1414 17.1364C49.6436 17.1364 48.7255 16.8301 48.7255 15.4563C48.7255 15.0446 48.729 13.9061 48.729 13.9061C48.729 13.9061 55.1002 13.9095 55.1002 13.9026C55.1002 11.5737 52.861 9.64453 50.1104 9.64453C47.3597 9.64453 45.1309 11.5305 45.1309 13.8628C45.1309 16.1952 47.3597 18.0794 50.1104 18.0794C52.3925 18.0794 54.3217 16.7713 54.909 14.9961L51.5382 14.9996H51.5383ZM48.729 12.733C48.7221 12.0755 48.7359 11.636 48.9512 11.2606C49.2148 10.7969 49.7005 10.5771 50.1414 10.5737C50.5806 10.5771 51.0663 10.7969 51.3282 11.2606C51.5435 11.636 51.5555 12.0755 51.5503 12.733H48.729V12.733Z" fill="#ED1C24"/>
<path d="M88.305 7.56996C88.6339 7.56996 88.9285 7.5492 88.9285 7.15125C88.9285 6.83288 88.6408 6.77579 88.3704 6.77579H87.8434V7.56996H88.305V7.56996ZM87.8434 9.01643H87.4558V6.44531H88.4273C89.0335 6.44531 89.3332 6.66851 89.3332 7.1772C89.3332 7.63744 89.0456 7.83641 88.6701 7.88486L89.397 9.01643H88.9629L88.286 7.90043H87.8434V9.01643V9.01643Z" fill="#ED1C24"/>
<path d="M88.31 9.59047C89.3159 9.59047 90.1082 8.79976 90.1082 7.72529C90.1082 6.66813 89.3159 5.87395 88.31 5.87395C87.2955 5.87395 86.5015 6.66813 86.5015 7.72529C86.5015 8.79976 87.2955 9.59047 88.31 9.59047ZM86.0571 7.72529C86.0571 6.44493 87.0889 5.50195 88.31 5.50195C89.5209 5.50195 90.5544 6.44493 90.5544 7.72529C90.5544 9.01604 89.5209 9.96247 88.31 9.96247C87.0889 9.96247 86.0571 9.01604 86.0571 7.72529Z" fill="#ED1C24"/>
</g>
<defs>
<clipPath id="clip0_7_998">
<rect width="97" height="24" fill="white"/>
</clipPath>
</defs>
</svg>
