<svg width="72" height="24" viewBox="0 0 72 24" fill="none" xmlns="http://www.w3.org/2000/svg">
<g clip-path="url(#clip0_9_1015)">
<path d="M35.4739 21.8146C36.7958 23.0983 38.5985 23.892 40.5866 23.892L72 23.8956L65.2157 3.65592C64.289 1.50576 62.1151 0 59.5042 0C56.9042 0 54.6974 1.55496 53.8054 3.69624L51.5438 10.2893L51.535 0.34056L40.5648 0.33504C38.5819 0.33504 36.7994 1.1088 35.4866 2.38872L35.4905 0.34392H24.2582C22.1662 0.34392 20.2634 1.236 18.9326 2.63808V0.33504L8.34624 0.34416C3.77616 0.34032 0.02736 3.91272 0.02184 8.63592C0.02184 10.8226 0.97752 12.8057 2.3868 14.275L0 14.2711V23.892L10.6661 23.8901C13.663 23.8865 16.6327 22.0783 17.665 19.9118L17.6959 19.8228C18.8885 22.2314 21.3773 23.892 24.2578 23.892L35.4737 23.8901V21.8146" fill="white"/>
<path d="M1.64795 22.2457L10.6424 22.2365C14.3223 22.2365 17.3046 19.2634 17.3046 15.6001C17.3046 11.9295 14.3223 8.95615 10.6424 8.95615L8.30651 8.96887C8.12243 8.96887 7.97315 8.81791 7.97315 8.63215C7.97315 8.44639 8.12243 8.29519 8.30651 8.29519L17.2847 8.29711L17.2883 5.48047H8.30459C6.56771 5.48047 5.15459 6.89143 5.15459 8.62495C5.15459 10.3601 6.56747 11.7656 8.30459 11.7656L10.6515 11.7965C12.7599 11.7965 14.4661 13.4969 14.4661 15.5948C14.4661 17.6941 12.7602 19.3983 10.6515 19.3983H1.65155L1.64795 22.2457" fill="#0060A8"/>
<path d="M1.65149 18.7373H10.6515C12.3939 18.7373 13.8032 17.3318 13.8032 15.5947C13.8032 13.8595 12.3939 12.4558 10.6515 12.4558L8.30453 12.4303C6.19973 12.4303 4.49189 10.728 4.49189 8.62489C4.49189 6.52753 6.19973 4.82497 8.30453 4.82497L17.2882 4.82305L17.2846 1.99561H8.30645C4.63037 1.99561 1.64429 4.96537 1.64429 8.63233C1.64429 12.2993 4.63037 15.2707 8.30645 15.2707L10.6296 15.2743C10.8063 15.2743 10.9556 15.4183 10.9556 15.6002C10.9556 15.7788 10.8063 15.9226 10.6296 15.9226L1.64789 15.9298L1.65149 18.7373" fill="#0060A8"/>
<path d="M24.2779 19.4165C22.7174 19.4165 21.4392 18.1728 21.4392 16.585V7.59985C21.4392 6.07225 22.7174 4.81585 24.2779 4.81585L33.8786 4.81753V1.99561H24.2779C21.1536 1.99561 18.6228 4.51729 18.6228 7.63081V16.5852C18.6228 19.699 21.1536 22.2242 24.2779 22.2242L33.8386 22.2281L33.8366 19.4131L24.2779 19.4165" fill="#0060A8"/>
<path d="M22.1276 7.63078C22.1276 6.44014 23.0855 5.4751 24.278 5.4751H33.8787V8.30086H25.6071C24.9445 8.30086 24.9354 8.95822 24.9354 8.95822H31.8361V11.7713H22.1243L22.1276 7.63078Z" fill="#0060A8"/>
<path d="M24.278 18.7318C23.0891 18.7318 22.124 17.7723 22.124 16.585V12.4409H31.8359V15.2597H24.9351C24.9443 15.9224 25.6069 15.9257 25.6069 15.9257H33.8384L33.8365 18.728L24.278 18.7318" fill="#0060A8"/>
<path d="M40.6065 19.4093C39.0516 19.4093 37.7808 18.1421 37.7808 16.585V7.63057C37.7808 6.07201 39.0425 4.81561 40.5991 4.81561H49.8979V1.99561H40.5775C37.4546 1.99561 34.9238 4.51729 34.9238 7.63081V16.5852C34.9238 19.699 37.4765 22.2242 40.5991 22.2242L49.8979 22.2281V8.95825H41.9066V11.7713H47.0738V19.4093H40.6065Z" fill="#0060A8"/>
<path d="M38.4434 16.5849C38.4434 17.7779 39.4084 18.7483 40.599 18.7483H46.4073V12.4375H41.9135V15.2599H43.5813L43.5865 15.9225H41.9262C41.5638 15.9225 41.2672 15.6223 41.2672 15.2599L41.2523 8.95626C41.2523 8.95626 41.2504 8.30082 41.9188 8.2845H49.901L49.8974 5.47314L40.5985 5.47506C39.4079 5.47506 38.4429 6.4401 38.4429 7.63074V16.5849" fill="#0060A8"/>
<path d="M58.6356 5.43296C58.7609 5.0744 59.1015 4.81592 59.504 4.81592C59.9067 4.81592 60.2506 5.0744 60.3725 5.43296L64.8864 18.7681H58.2769L58.284 15.631H60.4928L59.4984 12.6759L56.2594 22.2255H52.9275L58.6356 5.43296" fill="#0060A8"/>
<path d="M65.7965 19.4092H58.2879V22.2256H69.7147L63.7719 4.64274C63.2511 2.9277 61.5343 1.66602 59.502 1.66602C57.4666 1.66602 55.7552 2.92218 55.2305 4.63577L49.2332 22.2259H52.2248L58.0476 5.12729C58.284 4.56113 58.8416 4.16226 59.497 4.16226C60.1488 4.16226 60.7095 4.56114 60.948 5.1237L65.7965 19.4092" fill="#0060A8"/>
<path d="M67.5609 4.23335C68.0928 4.23335 68.5934 4.02575 68.9685 3.65255C69.3434 3.27575 69.5529 2.77871 69.5529 2.24711C69.5529 1.71911 69.3434 1.22375 68.9685 0.846946C68.5934 0.475666 68.0928 0.268066 67.5609 0.268066C66.4668 0.268066 65.5728 1.15487 65.5728 2.24735C65.5728 2.77895 65.7804 3.27599 66.1588 3.65279C66.5323 4.02575 67.031 4.23335 67.5609 4.23335ZM65.8533 2.24687C65.8533 1.79351 66.028 1.36391 66.3537 1.04159C66.678 0.719266 67.1076 0.544546 67.5609 0.544546C68.0198 0.544546 68.4494 0.719506 68.7736 1.04159C69.096 1.36391 69.2745 1.79351 69.2745 2.24687C69.2745 3.18815 68.506 3.95279 67.5609 3.95279C67.1073 3.95279 66.6777 3.77615 66.3537 3.45383C66.0278 3.13175 65.8533 2.70383 65.8533 2.24687Z" fill="#231F20"/>
<path d="M67.0512 2.41448V3.35024H66.7634V1.15088H67.5809C67.8888 1.15448 68.069 1.15448 68.2401 1.2836C68.4057 1.40576 68.4751 1.5896 68.4751 1.7936C68.4751 2.3072 68.0565 2.3744 67.9505 2.39624L68.5697 3.35024H68.2219L67.6193 2.41448H67.0512V2.41448ZM67.0512 2.17232H67.6356C67.7287 2.17232 67.8161 2.17232 67.9034 2.15048C68.1074 2.10128 68.1801 1.9556 68.1801 1.79552C68.1801 1.7372 68.1746 1.58984 68.0489 1.48784C67.9339 1.39136 67.7885 1.39496 67.6193 1.39496H67.0512V2.17232V2.17232Z" fill="#231F20"/>
</g>
<defs>
<clipPath id="clip0_9_1015">
<rect width="72" height="24" fill="white"/>
</clipPath>
</defs>
</svg>
