<svg width="111" height="22" viewBox="0 0 111 22" fill="none" xmlns="http://www.w3.org/2000/svg">
<g clip-path="url(#clip0_2047_2)">
<path d="M20.1301 8.41256C20.0724 8.24274 19.9663 8.09353 19.8248 7.98335C19.6833 7.87316 19.5127 7.80681 19.3339 7.79251L14.1048 7.377L11.842 2.36798C11.7699 2.20665 11.6527 2.06963 11.5045 1.97344C11.3562 1.87726 11.1833 1.82602 11.0066 1.82593C10.83 1.82583 10.657 1.87687 10.5087 1.9729C10.3604 2.06892 10.243 2.20582 10.1707 2.36707L7.90793 7.377L2.67878 7.79251C2.50309 7.80642 2.33513 7.87066 2.19499 7.97754C2.05485 8.08442 1.94847 8.2294 1.88858 8.39516C1.82868 8.56091 1.81781 8.74041 1.85726 8.91218C1.8967 9.08395 1.9848 9.24072 2.11101 9.36373L5.97532 13.1308L4.60864 19.0488C4.56714 19.2279 4.58044 19.4154 4.64682 19.5869C4.71319 19.7584 4.82957 19.9059 4.98086 20.0105C5.13214 20.115 5.31135 20.1716 5.49523 20.173C5.6791 20.1744 5.85915 20.1205 6.01201 20.0183L11.0064 16.6888L16.0007 20.0183C16.1569 20.1221 16.3412 20.1755 16.5287 20.1713C16.7162 20.1672 16.8979 20.1058 17.0495 19.9953C17.201 19.8848 17.3151 19.7306 17.3763 19.5533C17.4376 19.3761 17.4431 19.1843 17.3921 19.0039L15.7145 13.1336L19.8751 9.38941C20.1475 9.14359 20.2475 8.76019 20.1301 8.41256V8.41256Z" fill="#F3CD03"/>
<path d="M42.1457 8.41256C42.0881 8.24274 41.9819 8.09353 41.8404 7.98335C41.699 7.87316 41.5283 7.80681 41.3495 7.79251L36.1204 7.377L33.8576 2.36798C33.7855 2.20665 33.6683 2.06963 33.5201 1.97344C33.3719 1.87726 33.199 1.82602 33.0223 1.82593C32.8456 1.82583 32.6726 1.87687 32.5243 1.9729C32.376 2.06892 32.2586 2.20582 32.1864 2.36707L29.9236 7.377L24.6944 7.79251C24.5187 7.80642 24.3508 7.87066 24.2106 7.97754C24.0705 8.08442 23.9641 8.2294 23.9042 8.39516C23.8443 8.56091 23.8334 8.74041 23.8729 8.91218C23.9123 9.08395 24.0004 9.24072 24.1266 9.36373L27.9909 13.1308L26.6243 19.0488C26.5828 19.2279 26.5961 19.4154 26.6624 19.5869C26.7288 19.7584 26.8452 19.9059 26.9965 20.0105C27.1478 20.115 27.327 20.1716 27.5109 20.173C27.6947 20.1744 27.8748 20.1205 28.0276 20.0183L33.022 16.6888L38.0163 20.0183C38.1726 20.1221 38.3568 20.1755 38.5443 20.1713C38.7318 20.1672 38.9135 20.1058 39.0651 19.9953C39.2166 19.8848 39.3307 19.7306 39.392 19.5533C39.4532 19.3761 39.4587 19.1843 39.4078 19.0039L37.7301 13.1336L41.8907 9.38941C42.1631 9.14359 42.2631 8.76019 42.1457 8.41256V8.41256Z" fill="#F3CD03"/>
<path d="M64.1555 8.41256C64.0978 8.24274 63.9917 8.09353 63.8502 7.98335C63.7087 7.87316 63.5381 7.80681 63.3593 7.79251L58.1302 7.377L55.8673 2.36798C55.7953 2.20665 55.6781 2.06963 55.5298 1.97344C55.3816 1.87726 55.2087 1.82602 55.032 1.82593C54.8553 1.82583 54.6824 1.87687 54.5341 1.9729C54.3857 2.06892 54.2684 2.20582 54.1961 2.36707L51.9333 7.377L46.7042 7.79251C46.5285 7.80642 46.3605 7.87066 46.2204 7.97754C46.0802 8.08442 45.9739 8.2294 45.914 8.39516C45.8541 8.56091 45.8432 8.74041 45.8826 8.91218C45.9221 9.08395 46.0102 9.24072 46.1364 9.36373L50.0007 13.1308L48.634 19.0488C48.5925 19.2279 48.6058 19.4154 48.6722 19.5869C48.7386 19.7584 48.855 19.9059 49.0062 20.0105C49.1575 20.115 49.3367 20.1716 49.5206 20.173C49.7045 20.1744 49.8845 20.1205 50.0374 20.0183L55.0317 16.6888L60.0261 20.0183C60.1823 20.1221 60.3666 20.1755 60.5541 20.1713C60.7416 20.1672 60.9233 20.1058 61.0748 19.9953C61.2264 19.8848 61.3405 19.7306 61.4017 19.5533C61.463 19.3761 61.4685 19.1843 61.4175 19.0039L59.7399 13.1336L63.9005 9.38941C64.1729 9.14359 64.2729 8.76019 64.1555 8.41256V8.41256Z" fill="#F3CD03"/>
<path d="M86.173 8.41256C86.1154 8.24274 86.0093 8.09353 85.8678 7.98335C85.7263 7.87316 85.5556 7.80681 85.3769 7.79251L80.1477 7.377L77.8849 2.36798C77.8129 2.20665 77.6956 2.06963 77.5474 1.97344C77.3992 1.87726 77.2263 1.82602 77.0496 1.82593C76.8729 1.82583 76.7 1.87687 76.5517 1.9729C76.4033 2.06892 76.286 2.20582 76.2137 2.36707L73.9509 7.377L68.7217 7.79251C68.5461 7.80642 68.3781 7.87066 68.238 7.97754C68.0978 8.08442 67.9914 8.2294 67.9315 8.39516C67.8717 8.56091 67.8608 8.74041 67.9002 8.91218C67.9397 9.08395 68.0278 9.24072 68.154 9.36373L72.0183 13.1308L70.6516 19.0488C70.6101 19.2279 70.6234 19.4154 70.6898 19.5869C70.7562 19.7584 70.8725 19.9059 71.0238 20.0105C71.1751 20.115 71.3543 20.1716 71.5382 20.173C71.7221 20.1744 71.9021 20.1205 72.055 20.0183L77.0493 16.6888L82.0437 20.0183C82.1999 20.1221 82.3842 20.1755 82.5716 20.1713C82.7591 20.1672 82.9409 20.1058 83.0924 19.9953C83.244 19.8848 83.358 19.7306 83.4193 19.5533C83.4806 19.3761 83.4861 19.1843 83.4351 19.0039L81.7575 13.1336L85.9181 9.38941C86.1905 9.14359 86.2905 8.76019 86.173 8.41256V8.41256Z" fill="#F3CD03"/>
<path d="M108.13 8.41939C108.072 8.24958 107.966 8.10037 107.825 7.99018C107.683 7.87999 107.513 7.81365 107.334 7.79934L102.105 7.38383L99.842 2.37482C99.7699 2.21349 99.6527 2.07646 99.5045 1.98028C99.3562 1.88409 99.1833 1.83286 99.0066 1.83276C98.83 1.83267 98.657 1.88371 98.5087 1.97973C98.3604 2.07575 98.243 2.21265 98.1707 2.3739L95.9079 7.38383L90.6788 7.79934C90.5031 7.81326 90.3351 7.8775 90.195 7.98438C90.0549 8.09125 89.9485 8.23624 89.8886 8.40199C89.8287 8.56774 89.8178 8.74724 89.8573 8.91901C89.8967 9.09078 89.9848 9.24755 90.111 9.37056L93.9753 13.1376L92.6086 19.0556C92.5671 19.2348 92.5804 19.4222 92.6468 19.5937C92.7132 19.7652 92.8296 19.9128 92.9809 20.0173C93.1321 20.1218 93.3114 20.1785 93.4952 20.1799C93.6791 20.1813 93.8591 20.1274 94.012 20.0252L99.0064 16.6956L104.001 20.0252C104.157 20.1289 104.341 20.1823 104.529 20.1782C104.716 20.1741 104.898 20.1126 105.049 20.0022C105.201 19.8917 105.315 19.7374 105.376 19.5602C105.438 19.3829 105.443 19.1912 105.392 19.0107L103.715 13.1404L107.875 9.39625C108.148 9.15043 108.247 8.76702 108.13 8.41939V8.41939Z" fill="#F3CD03"/>
</g>
<defs>
<clipPath id="clip0_2047_2">
<rect width="110.068" height="22" fill="white"/>
</clipPath>
</defs>
</svg>
