<svg width="86" height="24" viewBox="0 0 86 24" fill="none" xmlns="http://www.w3.org/2000/svg">
<g clip-path="url(#clip0_5_988)">
<rect width="85.5" height="24" fill="white"/>
<path d="M0 24V0H85.5V24H0ZM14.8607 4.92307L12.0107 15.7949L9.16071 4.92307H6.51429L10.7893 19.282H13.2321L17.5071 4.92307H14.8607ZM29.7214 4.92307H26.2607L21.9857 19.282H24.8357L25.7111 15.7949H30.0675L30.9429 19.282H33.7929L29.7214 4.92307ZM49.6714 16.8205H43.5643V4.92307H40.9179V19.282H42.3429H43.5643H49.6714V16.8205ZM61.6821 4.92307L58.8321 15.7949L55.9821 4.92307H53.3357L57.6107 19.282H60.0536L64.3286 4.92307H61.6821ZM76.3393 12.9231H72.4714V10.6667H75.9321V8.82051H72.4714V6.76923H76.3393V4.92307H72.4714H70.4357V14.7692H72.4714H76.3393V12.9231ZM27.8893 7.17948L29.4975 13.5385H26.2811L27.8893 7.17948Z" fill="#F74843"/>
</g>
<defs>
<clipPath id="clip0_5_988">
<rect width="85.5" height="24" fill="white"/>
</clipPath>
</defs>
</svg>
